<svg xmlns="http://www.w3.org/2000/svg" viewBox="0 0 1300 130">
<path fill="#999899" d="M 00.38 0.00 C 00.35 19.66 00.80 39.33 00.55 59.00 C 93.36 59.00 155.18 58.99 217.00 59.00 C 217.00 60.33 217.00 61.67 217.00 63.00 C 155.18 63.00 93.36 63.00 00.55 63.00 Z"/>
<path fill="#428dcb" d=" M 230.31 52.53 C 237.38 49.11 246.09 56.37 244.20 63.93 C 242.99 71.07 233.52 74.66 227.97 69.92 C 221.76 65.61 223.33 55.13 230.31 52.53 Z"/>
<path fill="#428dcb" d=" M 567.34 52.48 C 574.40 49.14 583.01 56.55 581.06 64.01 C 579.83 71.37 569.74 74.74 564.37 69.52 C 558.70 64.97 560.46 54.84 567.34 52.48 Z"/>
<path fill="#428dcb" d=" M 904.35 52.44 C 911.71 49.07 920.40 57.20 917.74 64.78 C 915.92 71.95 905.89 74.56 900.85 69.15 C 895.43 64.39 897.65 54.76 904.35 52.44 Z"/>
<path fill="#d9d7d7" d=" M 273.33 56.41 C 276.28 55.60 279.46 58.66 278.69 61.66 C 278.12 64.70 274.08 66.45 271.66 64.29 C 268.61 62.28 269.72 57.05 273.33 56.41 Z"/>
<path fill="#d9d7d7" d=" M 296.32 56.39 C 299.77 55.48 303.21 59.96 301.04 62.97 C 299.63 65.75 295.39 66.03 293.68 63.38 C 291.55 60.97 293.39 57.04 296.32 56.39 Z"/>
<path fill="#d9d7d7" d=" M 319.27 56.36 C 322.47 55.61 325.58 59.23 324.30 62.27 C 323.35 65.57 318.41 66.32 316.56 63.39 C 314.55 60.95 316.25 56.92 319.27 56.36 Z"/>
<path fill="#d9d7d7" d=" M 342.30 56.37 C 345.74 55.63 348.99 59.92 346.92 62.94 C 345.54 65.73 341.36 66.01 339.58 63.49 C 337.42 61.00 339.11 56.82 342.30 56.37 Z"/>
<path fill="#d9d7d7" d=" M 608.26 56.32 C 611.65 55.74 614.59 59.76 612.85 62.80 C 611.44 65.87 606.60 66.08 605.08 63.02 C 603.35 60.46 605.31 56.73 608.26 56.32 Z"/>
<path fill="#d9d7d7" d=" M 631.28 56.31 C 634.91 55.73 637.83 60.48 635.39 63.37 C 633.69 66.03 629.46 65.73 628.00 63.01 C 626.25 60.40 628.25 56.66 631.28 56.31 Z"/>
<path fill="#d9d7d7" d=" M 654.27 56.28 C 657.52 55.93 660.50 59.83 658.66 62.76 C 657.36 65.54 653.17 66.17 651.33 63.59 C 648.87 61.08 651.03 56.70 654.27 56.28 Z"/>
<path fill="#d9d7d7" d=" M 942.36 56.44 C 945.66 55.40 949.30 59.47 947.50 62.61 C 946.30 65.40 942.14 66.25 940.21 63.74 C 937.79 61.46 939.37 57.30 942.36 56.44 Z"/>
<path fill="#d9d7d7" d=" M 965.38 56.40 C 968.08 55.67 971.05 58.14 970.81 60.94 C 970.88 64.38 966.26 66.65 963.67 64.28 C 960.73 62.19 961.87 57.11 965.38 56.40 Z"/>
<path fill="#d9d7d7" d=" M 988.39 56.39 C 991.33 55.66 994.48 58.71 993.68 61.70 C 993.09 64.71 989.07 66.44 986.68 64.29 C 983.57 62.28 984.74 57.00 988.39 56.39 Z"/>
<path fill="#d9d7d7" d=" M 1011.34 56.39 C 1014.80 55.51 1018.22 59.99 1016.02 63.00 C 1014.58 65.80 1010.29 66.01 1008.63 63.31 C 1006.55 60.88 1008.43 57.03 1011.34 56.39 Z"/>
<path fill="#999899" d=" M 251.34 59.00 C 256.69 59.00 262.04 59.00 267.39 59.00 C 267.42 60.33 267.45 61.67 267.49 63.00 C 262.15 63.00 256.80 63.00 251.46 62.99 C 251.42 61.66 251.38 60.33 251.34 59.00 Z"/>
<path fill="#999899" d=" M 281.23 59.00 C 284.25 59.00 287.27 59.00 290.30 59.00 C 290.34 60.33 290.39 61.67 290.45 63.00 C 287.33 63.00 284.22 63.00 281.11 63.00 C 281.15 61.67 281.19 60.33 281.23 59.00 Z"/>
<path fill="#999899" d=" M 304.18 59.00 C 307.21 59.00 310.25 59.00 313.28 59.00 C 313.31 60.34 313.33 61.67 313.36 63.00 C 310.26 63.00 307.16 63.00 304.06 63.00 C 304.10 61.67 304.14 60.33 304.18 59.00 Z"/>
<path fill="#999899" d=" M 327.09 59.00 C 330.10 59.00 333.10 59.00 336.12 58.99 C 336.14 60.33 336.17 61.67 336.21 63.01 C 333.16 63.00 330.10 63.00 327.05 63.00 C 327.06 61.67 327.08 60.33 327.09 59.00 Z"/>
<path fill="#999899" d=" M 350.05 59.00 C 418.02 59.00 486.00 59.00 553.97 59.00 C 553.88 60.33 553.80 61.67 553.73 63.00 C 485.78 63.00 417.83 63.00 349.87 63.00 C 349.93 61.66 349.99 60.33 350.05 59.00 Z"/>
<path fill="#999899" d=" M 588.11 59.03 C 592.73 58.99 597.35 58.99 601.98 59.00 C 601.99 60.33 602.02 61.66 602.05 63.00 C 597.53 63.00 593.01 63.00 588.50 62.99 C 588.36 61.67 588.24 60.35 588.11 59.03 Z"/>
<path fill="#999899" d=" M 615.85 58.99 C 618.85 59.00 621.85 59.00 624.86 59.00 C 624.88 60.33 624.91 61.67 624.94 63.00 C 621.86 63.00 618.78 63.00 615.70 63.01 C 615.75 61.67 615.80 60.33 615.85 58.99 Z"/>
<path fill="#999899" d=" M 638.74 59.00 C 641.75 59.00 644.77 59.00 647.79 59.00 C 647.82 60.33 647.86 61.67 647.91 63.00 C 644.79 63.00 641.68 63.00 638.58 63.00 C 638.63 61.67 638.68 60.33 638.74 59.00 Z"/>
<path fill="#999899" d=" M 661.65 59.00 C 738.04 59.01 814.42 58.98 890.81 59.01 C 890.79 60.34 890.79 61.66 890.81 62.99 C 814.38 63.02 737.95 62.99 661.52 63.00 C 661.57 61.67 661.61 60.33 661.65 59.00 Z"/>
<path fill="#999899" d=" M 925.11 59.00 C 928.92 59.00 932.74 59.00 936.56 59.00 C 936.59 60.33 936.64 61.67 936.70 63.00 C 932.87 63.00 929.05 63.00 925.23 63.00 C 925.18 61.67 925.14 60.33 925.11 59.00 Z"/>
<path fill="#999899" d=" M 950.41 58.99 C 953.46 59.00 956.52 59.01 959.58 59.03 C 959.58 60.35 959.58 61.68 959.60 63.00 C 956.48 63.00 953.37 63.00 950.27 63.01 C 950.31 61.67 950.36 60.33 950.41 58.99 Z"/>
<path fill="#999899" d=" M 973.32 59.00 C 976.34 59.00 979.36 59.00 982.39 59.00 C 982.41 60.33 982.44 61.67 982.49 63.00 C 979.39 63.00 976.30 63.00 973.22 63.00 C 973.24 61.67 973.28 60.33 973.32 59.00 Z"/>
<path fill="#999899" d=" M 996.23 59.00 C 999.25 59.00 1002.27 59.00 1005.30 59.00 C 1005.34 60.33 1005.38 61.67 1005.44 63.00 C 1002.32 63.00 999.22 63.00 996.11 63.00 C 996.14 61.67 996.18 60.33 996.23 59.00 Z"/>
<path fill="#999899" d="M 1019.18 59.00 C 1096.45 59.00 1172.72 58.99 1300.00 59.00 C 1300.99 60.33 1300.99 61.66 1300.00 63.00 C 1172.69 63.01 1096.38 62.99 1019.06 63.00 C 1019.09 61.67 1019.13 60.33 1019.18 59.00 Z"/>
</svg>